<?xml version="1.0" encoding="utf-8"?>
<!-- Generator: Adobe Illustrator 28.3.0, SVG Export Plug-In . SVG Version: 6.00 Build 0)  -->
<svg version="1.1" id="Layer_1" xmlns="http://www.w3.org/2000/svg" xmlns:xlink="http://www.w3.org/1999/xlink" x="0px" y="0px"
	 viewBox="0 0 3840 1639.7" style="enable-background:new 0 0 3840 1639.7;" xml:space="preserve">
<g>
	<path d="M1882.4,329.9c77.1,0,137.8-50.9,137.8-128c0-86.9-57.4-142.7-131.3-142.7c-77.1,0-136.2,42.7-136.2,131.2
		C1752.8,285.6,1798.8,329.9,1882.4,329.9z"/>
	<path d="M3683.8,393.9c-64-3.3-101.7,6.6-119.8,41c-32.8-18-75.5-31.2-134.5-31.2c-206.7,0-369.2,134.5-369.2,423.3
		c0,44.1,3.1,84.4,9.1,121.1c-41.5,57-97.8,118.5-148.5,118.5c-26.2,0-41-19.7-41-73.8c0-80.4,6.6-226.4,6.6-344.5
		c0-157.5-75.5-239.5-203.5-239.5c-86.9,0-159.1,41-224.8,106.7c0-4.9,0-11.5,0-16.4c4.9-80.4-31.2-105-119.8-103.4
		c-87,3.3-124.7,24.6-128,90.3c-3.3,153.3-5.9,293.9-7.2,439.5c-40,58.4-99.8,141.3-165,141.3c-34.5,0-42.7-27.9-42.7-119.8
		c0-208.4,0-354.4,1.6-431.5c3.3-78.8-26.3-106.7-114.9-106.7c-98.4,0-124.7,19.7-129.6,106.7c-4.7,79-8,222-8.2,412.9
		c-41.9,62.3-107.1,138.4-160.7,138.4c-32.8,0-47.6-21.3-47.6-80.4c0-70.5,8.2-198.5,8.2-305.2c0-180.5-80.4-275.6-213.3-275.6
		c-95.2,0-165.7,41-224.8,105c4.9-134.6,9.8-249.4,14.8-339.6c4.9-87-27.9-118.1-121.4-116.5c-83.7,3.3-119.8,24.6-123.1,106.7
		c-11.9,250.3-21.7,473.9-25,764C786.5,1016.4,737.8,1083,616,1083c-90.2,0-150.9-68.9-150.9-244.5c0-77.1,0-154.2,1.6-226.4
		c72.2-3.3,137.8-4.9,178.8-6.6c73.8-3.3,77.1-34.4,75.5-105c0-73.8-6.6-101.7-73.8-101.7c-39.4,0-105,1.6-178.8,3.3
		c1.6-80.4,3.3-149.3,4.9-200.2c3.3-50.8-6.6-80.4-118.1-80.4c-82,0-121.4,14.8-123.1,67.3c-3.3,55.8-6.6,132.9-8.2,221.5
		c-42.7,1.6-78.7,3.3-106.6,4.9c-52.5,3.3-72.2,29.5-68.9,100.1c6.6,88.6,14.8,108.3,70.5,108.3c27.9-1.6,62.3-1.6,100.1-3.3
		c-1.6,70.5-1.6,144.4-1.6,214.9c0,359.3,160.8,443,364.2,443c114.5,0,202.7-41.8,270.9-99.5c8.2,63.2,43.5,86.4,122.8,86.4
		c96.8,0,121.4-26.2,121.4-134.5c0-160.8,1.6-310.1,4.9-443c41-41,78.7-68.9,126.3-68.9c50.9,0,68.9,31.2,68.9,119.8
		c0,59.1-3.3,195.2-3.3,285.5c0,169,64,247.7,216.6,247.7c108.8,0,197.9-53.5,264.3-117.3c33.8,84.1,96.5,117.3,188.5,117.3
		c100.5,0,180.9-41.4,242.1-93.2c9.4,61.9,44.9,85.1,122.1,85.1c96.8,0,121.4-26.3,121.4-139.5c0-172.3,0-316.7,3.3-443
		c44.3-42.7,77.1-60.7,123.1-60.7c50.9,0,65.6,26.2,65.6,101.7c0,62.3-3.3,211.7-3.3,306.8c0,165.7,62.3,242.8,213.3,242.8
		c121.1,0,219.4-69.1,288.3-143.6c56.6,77.6,140.2,114.1,238.3,114.1c72.2,0,129.6-19.7,173.9-49.2c0,21.3-1.6,42.7-1.6,62.3
		c-1.6,105-60.7,141.1-144.4,141.1c-96.8,0-152.6-39.4-208.4-113.2c-26.3-32.8-75.5-26.2-116.5,16.4c-50.9,54.1-62.3,87-18,141.1
		c62.3,80.4,173.9,152.6,334.7,152.6c239.5,0,382.3-113.2,387.2-303.5c6.6-221.5,8.2-556.2,8.2-799
		C3792.1,416.9,3765.8,398.9,3683.8,393.9z M3460.6,1035.4c-93.5,0-150.9-62.3-150.9-216.6s60.7-213.3,149.3-213.3
		c42.7,0,70.6,8.2,91.9,19.7c0,114.8,1.6,252.7,1.6,385.6C3526.3,1025.6,3496.7,1035.4,3460.6,1035.4z"/>
</g>
</svg>
